<?xml version="1.0" encoding="utf-8"?>
<!-- Generator: Adobe Illustrator 27.0.0, SVG Export Plug-In . SVG Version: 6.00 Build 0)  -->
<svg version="1.1" id="Layer_1" xmlns="http://www.w3.org/2000/svg" xmlns:xlink="http://www.w3.org/1999/xlink" x="0px" y="0px"
	 viewBox="0 0 512 512" style="enable-background:new 0 0 512 512;" xml:space="preserve">
<style type="text/css">
	.st0{fill-rule:evenodd;clip-rule:evenodd;fill:url(#SVGID_1_);}
	.st1{fill-rule:evenodd;clip-rule:evenodd;fill:#FFFFFF;}
</style>
<g>
	
		<linearGradient id="SVGID_1_" gradientUnits="userSpaceOnUse" x1="-343.0459" y1="572.5952" x2="-342.1693" y2="572.5952" gradientTransform="matrix(0 -584.0447 584.0447 0 -334165.25 -199842)">
		<stop  offset="0" style="stop-color:#25CF43"/>
		<stop  offset="1" style="stop-color:#61FD7D"/>
	</linearGradient>
	<path class="st0" d="M511.95,382.01c0,2.8-0.14,8.83-0.28,13.6c-0.42,11.5-1.26,26.36-2.66,33.1c-2.1,10.1-5.19,19.77-9.26,27.77
		c-4.77,9.4-10.94,17.95-18.23,25.24s-15.71,13.46-25.1,18.23c-7.99,4.07-17.67,7.15-27.91,9.26c-6.73,1.4-21.46,2.24-32.82,2.66
		c-4.77,0.14-10.8,0.28-13.6,0.28h-252c-2.8,0-8.83-0.14-13.6-0.28c-11.5-0.42-26.36-1.26-33.1-2.66
		c-10.1-2.1-19.77-5.19-27.77-9.26c-9.4-4.77-17.95-10.94-25.24-18.23s-13.46-15.71-18.23-25.1c-4.07-7.99-7.15-17.67-9.26-27.91
		c-1.4-6.73-2.24-21.46-2.66-32.82c-0.14-4.77-0.28-10.8-0.28-13.6v-252c0-2.8,0.14-8.83,0.28-13.6c0.42-11.5,1.26-26.36,2.66-33.1
		c2.1-10.1,5.19-19.77,9.26-27.77c4.77-9.4,10.94-17.95,18.23-25.24s15.71-13.46,25.1-18.23c7.99-4.07,17.67-7.15,27.91-9.26
		c6.73-1.4,21.46-2.24,32.82-2.66c4.77-0.14,10.8-0.28,13.6-0.28h252c2.8,0,8.83,0.14,13.6,0.28c11.5,0.42,26.36,1.26,33.1,2.66
		c10.1,2.1,19.77,5.19,27.77,9.26c9.4,4.77,17.95,10.94,25.24,18.23s13.46,15.71,18.23,25.1c4.07,7.99,7.15,17.67,9.26,27.91
		c1.4,6.73,2.24,21.46,2.66,32.82c0.14,4.77,0.28,10.8,0.28,13.6L511.95,382.01z"/>
	<path class="st1" d="M390.65,122.58c-34.5-34.5-80.21-53.43-129.02-53.43c-100.55,0-182.45,81.76-182.45,182.45
		c0,32.11,8.41,63.53,24.4,91.15l-25.94,94.52l96.76-25.38c26.64,14.58,56.66,22.16,87.23,22.16h0.14l0,0
		c100.55,0,182.45-81.9,182.45-182.45C444.08,202.79,425.14,157.07,390.65,122.58z M261.63,403.19L261.63,403.19
		c-27.21,0-53.99-7.29-77.27-21.18l-5.47-3.23l-57.5,15.01l15.29-55.95l-3.65-5.75c-15.15-24.12-23.14-52.03-23.14-80.64
		c0-83.58,68.01-151.59,151.73-151.59c40.53,0,78.53,15.85,107.28,44.45c28.61,28.61,44.45,66.75,44.31,107.28
		C413.22,335.17,345.21,403.19,261.63,403.19z M344.79,289.6c-4.63-2.24-26.93-13.32-31.13-14.86s-7.15-2.24-10.24,2.24
		c-3.09,4.63-11.78,14.86-14.44,17.81c-2.66,3.09-5.33,3.37-9.82,1.12c-4.63-2.24-19.21-7.15-36.6-22.58
		c-13.6-12.06-22.72-27.07-25.38-31.55c-2.66-4.63-0.28-7.01,1.96-9.26c2.1-2.1,4.63-5.33,6.87-7.99c2.24-2.66,3.09-4.63,4.63-7.57
		c1.54-3.09,0.7-5.75-0.42-7.99c-1.12-2.24-10.24-24.68-14.02-33.8c-3.65-8.83-7.43-7.71-10.24-7.85c-2.66-0.14-5.75-0.14-8.69-0.14
		c-3.09,0-7.99,1.12-12.2,5.75c-4.21,4.63-15.99,15.57-15.99,38s16.27,44.03,18.65,47.12c2.24,3.09,32.11,49.08,77.83,68.86
		c10.94,4.63,19.35,7.43,25.94,9.54c10.94,3.51,20.9,2.94,28.75,1.82c8.69-1.26,26.93-11.08,30.71-21.74
		c3.79-10.66,3.79-19.77,2.66-21.74C352.36,293.1,349.28,291.98,344.79,289.6z"/>
</g>
</svg>
